<svg width="512" height="512" viewBox="0 0 512 512" fill="none" xmlns="http://www.w3.org/2000/svg">
<g clip-path="url(#clip0_472_1301)">
<rect width="512" height="512" fill="#F4F5F5"/>
<g clip-path="url(#clip1_472_1301)">
<path fill-rule="evenodd" clip-rule="evenodd" d="M160.895 209.218C160.793 208.295 160.793 207.364 160.895 206.441C161.541 203.882 160.343 200.236 164.582 199.693C164.911 199.693 165.333 198.872 165.404 198.378C165.803 195.637 166.097 192.885 166.437 190.133C166.625 188.684 166.038 188.165 164.629 188.165C142.626 188.165 120.63 188.165 98.6421 188.165C98.3582 188.115 98.0671 188.128 97.7885 188.204C97.51 188.279 97.2505 188.415 97.0278 188.603C96.805 188.791 96.6242 189.026 96.4975 189.292C96.3709 189.558 96.3014 189.849 96.2938 190.145C95.5306 194.116 94.65 198.052 93.7341 201.975C93.3702 203.52 93.7341 204.232 95.3545 204.22C99.0295 204.22 102.81 203.689 106.239 206.719C106.168 204.305 107.213 203.291 108.963 203.387C111.054 203.515 113.134 203.798 115.186 204.232C115.679 204.341 116.231 205.222 116.36 205.838C116.935 208.179 114.787 208.131 113.201 209.133C113.753 212.537 114.376 216.062 114.927 219.683H112.579C113.272 222.098 113.894 224.222 114.493 226.335L109.127 221.216L108.341 221.892L111.288 227.662L110.947 227.928L108.423 226.335L107.812 226.673C110.407 228.821 108.247 231.67 109.432 234.302C110.466 236.619 110.02 239.649 110.219 242.341L107.871 241.653C106.333 252.276 103.914 262.391 101.484 272.76L98.1489 270.226L97.6323 270.745C98.4036 272.08 99.0334 273.496 99.5109 274.97C99.9479 276.809 100.095 278.708 99.9454 280.595C99.9454 281.331 98.5951 281.923 97.9493 282.659C97.6323 283.033 97.2683 283.673 97.374 284.047C98.055 286.292 98.8064 288.526 101.589 289.346L99.3818 284.699L106.626 288.936V286.92C110.454 286.522 112.368 289.865 115.338 291.749C114.164 286.787 114.164 286.787 114.716 285.399L119.788 289.02L120.258 288.538L119.624 285.001L120.422 285.266C121.253 284.241 121.93 283.094 122.43 281.862C123.428 277.891 124.18 273.835 125.025 269.791C125.53 267.377 125.964 264.962 128.994 264.6C128.665 262.126 128.348 259.856 128.101 257.587C128.043 257.092 128.101 256.283 128.336 256.126C130.297 254.992 129.51 253.109 129.639 251.503C129.792 248.449 129.769 245.395 129.851 242.353C129.865 242.233 129.906 242.118 129.972 242.017C130.037 241.917 130.124 241.833 130.227 241.774C132.575 240.953 131.87 239.239 131.518 237.356L135.874 240.772L136.45 240.313C135.898 238.973 135.393 237.609 134.771 236.293C133.972 234.627 132.61 233.082 134.512 231.223C134.747 230.994 134.512 230.016 134.242 229.509C133.843 228.604 133.291 227.771 132.645 226.6C135.522 226.045 135.769 223.932 136.168 221.772C137.048 216.943 138.152 212.115 139.009 207.346C139.42 204.932 140.453 203.954 142.884 204.232C144.237 204.522 145.646 204.339 146.888 203.713C148.966 202.156 150.633 202.832 152.406 203.906C155.107 205.548 157.772 207.25 160.895 209.218ZM191.223 232.986C191.787 268.161 162.633 300.428 124.45 299.909C88.1804 299.414 59.5783 268.234 60.001 231.151C60.4354 193.102 92.3487 164.856 126.798 165.001C162.152 165.157 191.94 197.062 191.223 232.986Z" fill="#ED8400"/>
<path fill-rule="evenodd" clip-rule="evenodd" d="M420.204 251.455L409.108 216.255L408.075 216.339C404.459 227.94 400.854 239.54 397.144 251.455H420.204ZM452 286.823C451.096 286.908 450.509 287.029 449.91 287.017C444.333 286.944 438.767 286.823 433.19 286.799C432.579 286.897 431.954 286.742 431.453 286.369C430.952 285.996 430.614 285.435 430.513 284.808C429.503 281.391 428.294 278.036 427.308 274.607C427.208 273.902 426.847 273.264 426.299 272.828C425.752 272.391 425.061 272.189 424.372 272.266C413.688 272.266 403.003 272.266 392.306 272.35C391.833 272.447 391.389 272.657 391.01 272.964C390.631 273.27 390.327 273.663 390.122 274.112C388.819 277.734 387.704 281.476 386.6 285.194C386.51 285.778 386.199 286.301 385.735 286.65C385.271 286.998 384.691 287.143 384.123 287.053C378.393 287.053 372.651 287.125 366.933 286.932C366.278 286.872 365.643 286.671 365.069 286.342C364.494 286.014 363.994 285.565 363.599 285.025C353.818 268.91 344.178 252.698 334.433 236.547C333.881 235.812 333.583 234.91 333.583 233.982C333.583 233.053 333.881 232.151 334.433 231.416C344.131 215.426 353.759 199.391 363.317 183.313C363.624 182.683 364.103 182.16 364.695 181.806C365.288 181.452 365.967 181.284 366.651 181.321C383.457 181.385 400.263 181.385 417.069 181.321C417.384 181.269 417.705 181.282 418.015 181.359C418.325 181.435 418.617 181.574 418.874 181.767C419.132 181.96 419.35 182.203 419.515 182.483C419.681 182.763 419.791 183.073 419.84 183.397C430.306 217.148 440.806 250.891 451.342 284.626C451.636 285.242 451.753 285.846 452 286.823Z" fill="#ED8400"/>
<path fill-rule="evenodd" clip-rule="evenodd" d="M195.755 234.072C195.755 217.438 195.755 200.804 195.755 184.158C195.755 182.021 196.224 181.297 198.443 181.309C225.84 181.381 253.237 181.381 280.634 181.309C282.747 181.309 283.475 181.876 283.405 184.109C283.24 189.191 283.205 194.297 283.322 199.391C283.322 201.516 282.7 202.071 280.681 202.059C260.074 201.987 239.48 202.059 218.885 202.059C215.856 202.059 215.844 202.059 215.856 205.21C215.856 210.533 215.95 215.869 215.856 221.204C215.856 223.292 216.56 223.956 218.568 223.944C232.435 223.872 246.29 223.944 260.156 223.86C262.153 223.86 262.857 224.343 262.798 226.516C262.646 231.682 262.669 236.861 262.798 242.039C262.798 243.995 262.293 244.634 260.321 244.622C246.466 244.55 232.599 244.622 218.744 244.526C216.326 244.526 215.692 245.226 215.821 247.604C216.103 253.157 216.208 258.734 216.267 264.298C216.267 265.928 216.948 266.423 218.357 266.351C219.05 266.351 219.742 266.351 220.447 266.351H280.152C283.381 266.351 283.381 266.351 283.369 269.598C283.369 274.607 283.24 279.629 283.369 284.639C283.369 286.667 282.712 287.173 280.833 287.161C253.264 286.968 225.695 286.831 198.126 286.751C196.306 286.751 195.778 286.208 195.778 284.337C195.778 267.509 195.755 250.791 195.755 234.072Z" fill="#ED8400"/>
<path fill-rule="evenodd" clip-rule="evenodd" d="M297.424 250.706C297.424 249.946 297.33 249.185 297.33 248.425C297.33 227.095 297.412 205.765 297.33 184.447C297.33 182.033 297.893 181.333 300.289 181.357C312.441 181.49 324.605 181.429 336.758 181.429H339.482C325.979 205.053 311.666 227.771 297.424 250.706Z" fill="#ED8400"/>
<path fill-rule="evenodd" clip-rule="evenodd" d="M320.66 255.1L339.364 286.679H301.604C307.862 276.321 314.108 265.952 320.66 255.1Z" fill="#ED8400"/>
<path fill-rule="evenodd" clip-rule="evenodd" d="M112.602 343.148V333.781C112.583 333.604 112.62 333.426 112.707 333.274C112.959 333.089 113.269 333.007 113.576 333.044H115.76C116.191 333.044 116.461 333.105 116.57 333.225C116.635 333.301 116.684 333.389 116.714 333.484C116.744 333.58 116.755 333.681 116.746 333.781V343.124C116.718 343.539 116.795 343.955 116.969 344.331C117.157 344.615 117.418 344.839 117.723 344.98C118.028 345.12 118.364 345.172 118.695 345.128C119.235 345.177 119.773 345.013 120.198 344.669C120.542 344.235 120.706 343.68 120.656 343.124V333.781C120.634 333.602 120.676 333.422 120.774 333.274C121.022 333.082 121.335 332.999 121.643 333.044H123.826C124.109 333.007 124.395 333.071 124.637 333.225C124.758 333.382 124.817 333.581 124.801 333.781V343.148C124.851 344.247 124.513 345.327 123.85 346.19C122.864 347.397 121.138 348 118.695 348C116.253 348 114.539 347.409 113.553 346.214C112.889 345.342 112.551 344.254 112.602 343.148Z" fill="#ED8400"/>
<path fill-rule="evenodd" clip-rule="evenodd" d="M145.337 340.275V333.781C145.32 333.603 145.362 333.425 145.454 333.274C145.703 333.082 146.015 332.999 146.323 333.044H148.425C148.707 333.007 148.993 333.071 149.235 333.225C149.355 333.383 149.413 333.581 149.399 333.781V347.059C149.422 347.237 149.38 347.417 149.282 347.566C149.036 347.754 148.729 347.837 148.425 347.795H146.628C146.387 347.816 146.145 347.774 145.924 347.675C145.83 347.591 145.754 347.488 145.701 347.373L141.169 339.828V347.071C141.169 347.397 141.086 347.602 140.934 347.687C140.699 347.782 140.446 347.823 140.194 347.807H138.092C137.866 347.827 137.638 347.798 137.423 347.723C137.315 347.657 137.229 347.56 137.174 347.444C137.12 347.328 137.1 347.198 137.118 347.071V333.793C137.099 333.616 137.136 333.438 137.223 333.286C137.472 333.094 137.785 333.011 138.092 333.056H140.276C140.477 333.033 140.681 333.068 140.864 333.157C141.046 333.247 141.201 333.388 141.309 333.563L145.337 340.275Z" fill="#ED8400"/>
<path fill-rule="evenodd" clip-rule="evenodd" d="M161.434 347.095V333.817C161.412 333.639 161.454 333.458 161.552 333.31C161.797 333.121 162.105 333.039 162.409 333.08H164.593C164.879 333.042 165.169 333.106 165.415 333.261C165.536 333.418 165.595 333.617 165.579 333.817V347.095C165.579 347.425 165.497 347.63 165.332 347.711C165.098 347.808 164.845 347.849 164.593 347.831H162.409C162.183 347.849 161.955 347.82 161.74 347.747C161.634 347.679 161.549 347.582 161.495 347.467C161.441 347.351 161.42 347.222 161.434 347.095Z" fill="#ED8400"/>
<path fill-rule="evenodd" clip-rule="evenodd" d="M177.25 333.044H179.962C180.148 333.04 180.331 333.091 180.491 333.189C180.561 333.23 180.622 333.285 180.671 333.352C180.719 333.418 180.754 333.494 180.773 333.575L183.238 341.518C183.332 341.784 183.403 341.917 183.461 341.917C183.52 341.917 183.614 341.784 183.708 341.518L186.056 333.527C186.174 333.201 186.479 333.044 186.984 333.044H189.731C190.025 333.044 190.177 333.141 190.177 333.358C190.171 333.422 190.171 333.487 190.177 333.551L185.986 347.143C185.934 347.377 185.795 347.581 185.598 347.711C185.394 347.799 185.174 347.84 184.953 347.831H181.594C181.429 347.846 181.264 347.803 181.125 347.711C181.011 347.594 180.93 347.448 180.89 347.288L176.698 333.575C176.616 333.31 176.698 333.165 176.792 333.117C176.941 333.069 177.095 333.045 177.25 333.044Z" fill="#ED8400"/>
<path fill-rule="evenodd" clip-rule="evenodd" d="M201.261 347.095V333.817C201.242 333.64 201.279 333.463 201.367 333.31C201.619 333.125 201.929 333.043 202.236 333.08H211.465C211.747 333.043 212.033 333.107 212.275 333.261C212.338 333.337 212.385 333.426 212.413 333.521C212.442 333.617 212.451 333.718 212.439 333.817V335.314C212.439 335.39 212.419 335.464 212.382 335.53C212.345 335.595 212.292 335.65 212.228 335.688C212.026 335.797 211.797 335.843 211.57 335.821H205.946C205.617 335.821 205.441 335.941 205.441 336.159V338.38C205.441 338.633 205.547 338.766 205.758 338.766H210.173C210.334 338.765 210.494 338.798 210.643 338.863C210.695 338.892 210.739 338.936 210.77 338.989C210.801 339.042 210.818 339.103 210.819 339.164V341.084C210.819 341.373 210.631 341.506 210.255 341.506H205.805C205.757 341.498 205.707 341.502 205.66 341.517C205.613 341.533 205.571 341.559 205.535 341.594C205.5 341.629 205.473 341.672 205.457 341.72C205.441 341.767 205.435 341.818 205.441 341.868V344.862C205.441 345.031 205.547 345.115 205.758 345.115H212.052C212.264 345.091 212.478 345.138 212.662 345.248C212.71 345.3 212.746 345.36 212.771 345.427C212.795 345.493 212.806 345.564 212.803 345.635V347.119C212.822 347.296 212.785 347.473 212.697 347.626C212.446 347.811 212.136 347.893 211.829 347.856H202.283C202.057 347.873 201.829 347.844 201.614 347.771C201.493 347.711 201.394 347.613 201.331 347.492C201.267 347.371 201.243 347.232 201.261 347.095Z" fill="#ED8400"/>
<path fill-rule="evenodd" clip-rule="evenodd" d="M228.795 336.11V338.681C228.795 338.899 228.924 338.995 229.182 338.995H230.497C231.15 339.028 231.8 338.877 232.376 338.561C232.591 338.447 232.771 338.273 232.895 338.06C233.019 337.847 233.084 337.602 233.081 337.354C233.087 337.139 233.04 336.926 232.946 336.734C232.852 336.542 232.712 336.378 232.54 336.255C231.935 335.852 231.217 335.665 230.497 335.724H229.323C228.948 335.748 228.795 335.869 228.795 336.11ZM225.636 333.044H230.814C232.685 332.908 234.548 333.39 236.133 334.42C236.573 334.725 236.934 335.137 237.181 335.619C237.429 336.101 237.557 336.639 237.554 337.185C237.567 337.651 237.49 338.115 237.327 338.55C237.163 338.986 236.917 339.383 236.603 339.72C236.092 340.268 235.441 340.657 234.724 340.842C234.56 340.842 234.478 340.927 234.478 341.035C234.493 341.159 234.542 341.276 234.619 341.373L238.141 347.071C238.186 347.166 238.214 347.268 238.223 347.373C238.223 347.687 238 347.831 237.554 347.831H234.642C234.342 347.858 234.04 347.795 233.773 347.65C233.697 347.575 233.63 347.49 233.574 347.397L230.251 341.892C230.184 341.798 230.096 341.721 229.993 341.671C229.891 341.62 229.777 341.597 229.664 341.603H229.077C228.877 341.603 228.771 341.687 228.771 341.856V347.095C228.771 347.421 228.689 347.626 228.537 347.711C228.302 347.806 228.049 347.847 227.797 347.831H225.613C225.383 347.849 225.151 347.821 224.932 347.747C224.826 347.679 224.741 347.582 224.687 347.467C224.633 347.351 224.612 347.222 224.627 347.095V333.817C224.604 333.639 224.646 333.458 224.744 333.31C224.867 333.205 225.01 333.128 225.164 333.082C225.317 333.037 225.478 333.024 225.636 333.044Z" fill="#ED8400"/>
<path fill-rule="evenodd" clip-rule="evenodd" d="M249.695 347.011V345.115C249.689 345.043 249.704 344.97 249.74 344.908C249.776 344.845 249.83 344.795 249.894 344.765C250.018 344.7 250.155 344.667 250.294 344.669C250.465 344.653 250.638 344.653 250.81 344.669L251.256 344.753C251.573 344.826 252.055 344.898 252.689 344.971C253.323 345.043 253.863 345.067 254.215 345.067C254.89 345.103 255.562 344.97 256.176 344.681C256.381 344.592 256.557 344.445 256.684 344.257C256.811 344.069 256.883 343.847 256.892 343.619C256.892 342.955 256.352 342.327 255.272 341.748L253.534 340.903C252.519 340.451 251.568 339.863 250.705 339.152C250.374 338.851 250.112 338.478 249.938 338.061C249.763 337.644 249.68 337.192 249.695 336.738C249.683 336.127 249.84 335.524 250.147 335.001C250.455 334.477 250.901 334.054 251.432 333.781C252.888 333.037 254.505 332.688 256.129 332.767C256.981 332.762 257.832 332.819 258.677 332.936C259.945 333.105 260.579 333.346 260.579 333.672V335.724C260.52 335.893 260.356 335.978 260.098 335.978L258.759 335.784L257.315 335.579H256.434C255.865 335.54 255.295 335.635 254.767 335.857C254.427 336.038 254.25 336.267 254.25 336.533C254.25 337.004 255.307 337.74 257.409 338.79C258.384 339.235 259.289 339.825 260.098 340.54C260.521 340.93 260.86 341.406 261.092 341.938C261.325 342.47 261.446 343.047 261.448 343.631C261.449 344.277 261.278 344.911 260.953 345.465C260.628 346.018 260.161 346.469 259.605 346.769C258.054 347.616 256.309 348.012 254.556 347.916C253.859 347.916 253.076 347.88 252.207 347.807C251.55 347.765 250.897 347.66 250.258 347.493C250.08 347.471 249.917 347.38 249.8 347.24C249.746 347.174 249.71 347.095 249.695 347.011Z" fill="#ED8400"/>
<path fill-rule="evenodd" clip-rule="evenodd" d="M278.743 342.448H281.092C281.303 342.448 281.362 342.351 281.291 342.134L280.117 338.392C280.097 338.34 280.064 338.295 280.023 338.259L279.917 338.187C279.839 338.237 279.774 338.308 279.73 338.392L278.638 342.134C278.485 342.448 278.544 342.448 278.743 342.448ZM278.133 333.008H281.655C281.851 333.001 282.047 333.034 282.23 333.105C282.402 333.22 282.528 333.396 282.583 333.599L287.115 347.168C287.133 347.259 287.133 347.354 287.115 347.445C287.115 347.687 286.915 347.795 286.504 347.795H283.757C283.544 347.82 283.329 347.76 283.158 347.626C283.032 347.514 282.938 347.368 282.888 347.204L282.324 345.598C282.254 345.393 282.066 345.284 281.773 345.284H277.933C277.616 345.284 277.428 345.393 277.381 345.598L276.841 347.276C276.798 347.418 276.717 347.543 276.606 347.638C276.438 347.759 276.235 347.814 276.031 347.795H273.319C272.966 347.795 272.779 347.662 272.779 347.397V347.276C272.787 347.24 272.787 347.203 272.779 347.168L277.217 333.636C277.26 333.433 277.378 333.255 277.546 333.141C277.734 333.071 277.933 333.038 278.133 333.044V333.008Z" fill="#ED8400"/>
<path fill-rule="evenodd" clip-rule="evenodd" d="M298.281 347.095V333.817C298.259 333.639 298.3 333.458 298.398 333.31C298.647 333.118 298.96 333.036 299.267 333.08H301.451C301.733 333.043 302.02 333.107 302.261 333.261C302.383 333.418 302.442 333.617 302.426 333.817V344.862C302.426 345.031 302.531 345.115 302.731 345.115H307.944C308.156 345.091 308.37 345.138 308.555 345.248C308.602 345.3 308.639 345.36 308.663 345.427C308.687 345.493 308.698 345.564 308.696 345.635V347.119C308.718 347.297 308.676 347.478 308.578 347.626C308.33 347.818 308.017 347.9 307.709 347.856H299.267C299.037 347.874 298.806 347.845 298.586 347.771C298.477 347.702 298.389 347.6 298.335 347.48C298.281 347.36 298.262 347.226 298.281 347.095Z" fill="#ED8400"/>
<path fill-rule="evenodd" clip-rule="evenodd" d="M347.9 343.293L346.491 347.276C346.397 347.53 346.292 347.687 346.174 347.735C345.951 347.808 345.716 347.837 345.482 347.819H342.405C342.155 347.843 341.904 347.784 341.689 347.65C341.55 347.56 341.44 347.43 341.372 347.276L337.286 333.768C337.253 333.65 337.233 333.529 337.227 333.406C337.227 333.153 337.427 333.032 337.814 333.032H340.761C340.961 333.019 341.158 333.084 341.313 333.213C341.43 333.317 341.519 333.45 341.572 333.599L344.166 342.689C344.171 342.745 344.171 342.802 344.166 342.858C344.195 342.929 344.235 342.994 344.284 343.051C344.284 343.051 344.354 343.051 344.39 342.918C344.421 342.852 344.448 342.783 344.472 342.713L345.881 338.078C345.902 337.946 345.902 337.811 345.881 337.68C345.863 337.441 345.815 337.206 345.74 336.979L344.765 333.768C344.731 333.671 344.711 333.57 344.707 333.467C344.707 333.177 344.906 333.032 345.294 333.032H348.241C348.466 333 348.694 333.061 348.875 333.201C348.967 333.325 349.028 333.47 349.051 333.624L351.258 341.675C351.252 341.715 351.252 341.756 351.258 341.796C351.258 341.796 351.258 341.796 351.341 341.868C351.423 341.941 351.481 341.735 351.481 341.675L351.81 340.383L353.971 333.599C354.001 333.414 354.097 333.246 354.241 333.129C354.4 333.047 354.58 333.013 354.757 333.032H357.669C358.057 333.032 358.256 333.165 358.256 333.43C358.242 333.536 358.223 333.641 358.198 333.744L353.888 347.131C353.851 347.347 353.733 347.54 353.56 347.668C353.387 347.797 353.172 347.851 352.961 347.819H350.014C349.843 347.835 349.673 347.789 349.532 347.69C349.391 347.591 349.287 347.445 349.239 347.276L347.9 343.293Z" fill="#ED8400"/>
<path fill-rule="evenodd" clip-rule="evenodd" d="M374.483 342.448H376.831C377.042 342.448 377.101 342.351 377.031 342.134L375.798 338.392C375.778 338.34 375.745 338.295 375.704 338.259L375.598 338.187C375.52 338.237 375.455 338.308 375.41 338.392L374.318 342.134C374.213 342.448 374.283 342.448 374.483 342.448ZM373.872 333.008H377.395C377.591 333.001 377.786 333.034 377.97 333.105C378.142 333.22 378.267 333.396 378.322 333.599L382.89 347.204C382.907 347.295 382.907 347.39 382.89 347.481C382.89 347.723 382.678 347.831 382.267 347.831H379.532C379.318 347.857 379.104 347.796 378.933 347.662C378.807 347.55 378.713 347.404 378.663 347.24L378.099 345.634C378.029 345.429 377.841 345.321 377.547 345.321H373.731C373.414 345.321 373.227 345.429 373.168 345.634L372.639 347.312C372.597 347.454 372.515 347.579 372.405 347.675C372.236 347.794 372.033 347.849 371.829 347.831H369.117C368.753 347.831 368.577 347.699 368.577 347.433V347.276C368.605 347.246 368.626 347.208 368.636 347.168L372.945 333.599C372.987 333.397 373.105 333.219 373.273 333.105C373.468 333.046 373.671 333.025 373.872 333.044V333.008Z" fill="#ED8400"/>
<path fill-rule="evenodd" clip-rule="evenodd" d="M393.657 333.044H396.909C397.103 333.033 397.296 333.083 397.461 333.189C397.555 333.263 397.632 333.358 397.684 333.467L399.903 337.728C399.903 337.728 399.903 337.812 400.044 337.897C400.102 337.862 400.151 337.812 400.185 337.752L402.698 333.503C402.788 333.358 402.909 333.234 403.05 333.141C403.174 333.078 403.311 333.045 403.449 333.044H406.725C407.159 333.044 407.371 333.165 407.371 333.394C407.371 333.471 407.35 333.546 407.312 333.612C407.306 333.647 407.306 333.684 407.312 333.72L402.498 340.782C402.416 340.891 402.334 341.023 402.24 341.168C402.143 341.322 402.093 341.503 402.099 341.687V347.095C402.099 347.421 402.017 347.626 401.864 347.711C401.629 347.806 401.376 347.847 401.124 347.831H398.94C398.714 347.851 398.486 347.822 398.271 347.747C398.161 347.683 398.072 347.587 398.016 347.471C397.959 347.355 397.938 347.224 397.954 347.095V341.687C397.971 341.555 397.971 341.421 397.954 341.289C397.874 341.112 397.78 340.942 397.672 340.782L393.257 333.72C393.182 333.604 393.134 333.472 393.117 333.334C393.113 333.279 393.128 333.224 393.161 333.179C393.193 333.135 393.24 333.104 393.293 333.092C393.412 333.062 393.534 333.046 393.657 333.044Z" fill="#ED8400"/>
</g>
</g>
<defs>
<clipPath id="clip0_472_1301">
<rect width="512" height="512" fill="white"/>
</clipPath>
<clipPath id="clip1_472_1301">
<rect width="392" height="183" fill="white" transform="translate(60 165)"/>
</clipPath>
</defs>
</svg>
