<svg width="70" height="78" viewBox="0 0 70 78" fill="none" xmlns="http://www.w3.org/2000/svg">
<path d="M1.5 20.3814L35 1.7171L68.5 20.3814V57.6186L35 76.2829L1.5 57.6186V20.3814Z" fill="#F4F5F5" stroke="#ED8400" stroke-width="3"/>
<path d="M27.5296 52.3629C28.311 51.5815 28.75 50.5217 28.75 49.4167C28.75 48.3116 28.311 47.2518 27.5296 46.4704C26.7482 45.689 25.6884 45.25 24.5833 45.25C23.4783 45.25 22.4185 45.689 21.6371 46.4704C20.8557 47.2518 20.4167 48.3116 20.4167 49.4167C20.4167 50.5217 20.8557 51.5815 21.6371 52.3629C22.4185 53.1443 23.4783 53.5833 24.5833 53.5833C25.6884 53.5833 26.7482 53.1443 27.5296 52.3629Z" stroke="#ED8400" stroke-width="2"/>
<path d="M48.3629 52.3629C49.1443 51.5815 49.5833 50.5217 49.5833 49.4167C49.5833 48.3116 49.1443 47.2518 48.3629 46.4704C47.5815 45.689 46.5217 45.25 45.4167 45.25C44.3116 45.25 43.2518 45.689 42.4704 46.4704C41.689 47.2518 41.25 48.3116 41.25 49.4167C41.25 50.5217 41.689 51.5815 42.4704 52.3629C43.2518 53.1443 44.3116 53.5833 45.4167 53.5833C46.5217 53.5833 47.5815 53.1443 48.3629 52.3629Z" stroke="#ED8400" stroke-width="2"/>
<path d="M37.0833 47.3337V26.5003C37.0833 25.9478 36.8638 25.4179 36.4731 25.0272C36.0824 24.6365 35.5525 24.417 35 24.417H18.3333C17.7808 24.417 17.2509 24.6365 16.8602 25.0272C16.4695 25.4179 16.25 25.9478 16.25 26.5003V47.3337C16.25 47.8862 16.4695 48.4161 16.8602 48.8068C17.2509 49.1975 17.7808 49.417 18.3333 49.417H20.4167M37.0833 47.3337C37.0833 47.8862 36.8638 48.4161 36.4731 48.8068C36.0824 49.1975 35.5525 49.417 35 49.417H28.75M37.0833 47.3337V30.667C37.0833 30.1145 37.3028 29.5846 37.6935 29.1939C38.0842 28.8032 38.6141 28.5837 39.1667 28.5837H44.5542C45.1067 28.5838 45.6365 28.8033 46.0271 29.1941L53.1396 36.3066C53.5303 36.6972 53.7499 37.227 53.75 37.7795V47.3337C53.75 47.8862 53.5305 48.4161 53.1398 48.8068C52.7491 49.1975 52.2192 49.417 51.6667 49.417H49.5833M37.0833 47.3337C37.0833 47.8862 37.3028 48.4161 37.6935 48.8068C38.0842 49.1975 38.6141 49.417 39.1667 49.417H41.25M20.4167 49.417C20.4167 50.5221 20.8557 51.5819 21.6371 52.3633C22.4185 53.1447 23.4783 53.5837 24.5833 53.5837C25.6884 53.5837 26.7482 53.1447 27.5296 52.3633C28.311 51.5819 28.75 50.5221 28.75 49.417M20.4167 49.417C20.4167 48.3119 20.8557 47.2521 21.6371 46.4707C22.4185 45.6893 23.4783 45.2503 24.5833 45.2503C25.6884 45.2503 26.7482 45.6893 27.5296 46.4707C28.311 47.2521 28.75 48.3119 28.75 49.417M49.5833 49.417C49.5833 50.5221 49.1443 51.5819 48.3629 52.3633C47.5815 53.1447 46.5217 53.5837 45.4167 53.5837C44.3116 53.5837 43.2518 53.1447 42.4704 52.3633C41.689 51.5819 41.25 50.5221 41.25 49.417M49.5833 49.417C49.5833 48.3119 49.1443 47.2521 48.3629 46.4707C47.5815 45.6893 46.5217 45.2503 45.4167 45.2503C44.3116 45.2503 43.2518 45.6893 42.4704 46.4707C41.689 47.2521 41.25 48.3119 41.25 49.417" stroke="#ED8400" stroke-width="3" stroke-linecap="round" stroke-linejoin="round"/>
</svg>
